# xmcd CD database file
#
# Track frame offsets:
#	150
#	22191
#	49755
#	80789
#	108632
#	134342
#	152638
#	174588
#	190500
#	215742
#
# Disc length: 3176 seconds
#
# Revision: 2
# Processed by: cddbd v1.4PL0 Copyright (c) Steve Scherf et al.
# Submitted via: CDex 1.50Beta3
#
DISCID=8d0c660a
DTITLE=Kenny Drew Trio - Expressions
DYEAR=1900
DGENRE=Jazz
TTITLE0=Autumn In Rome
TTITLE1=Cathedral In Milano
TTITLE2=Oboe Concerto D Minor
TTITLE3=Anastasia
TTITLE4=My Funny Valentine
TTITLE5=Isn't It Romantic
TTITLE6=Valse Italiano
TTITLE7=Sorrento
TTITLE8=The Big Boot
TTITLE9=Expressions
EXTD=
EXTT0=
EXTT1=
EXTT2=
EXTT3=
EXTT4=
EXTT5=
EXTT6=
EXTT7=
EXTT8=
EXTT9=
PLAYORDER=
